<svg width="34" height="35" viewBox="0 0 34 35" fill="none" xmlns="http://www.w3.org/2000/svg">
<g clip-path="url(#clip0_1_23)">
<path d="M25.8876 24.9244L24.4104 23.4472C27.6923 20.1653 27.6923 14.8278 24.4104 11.5459L25.8876 10.0687C29.9848 14.1659 29.9848 20.8272 25.8876 24.9244Z" fill="#ACACAE"/>
<path d="M29.0511 27.9276L27.5739 26.4504C29.9639 24.0604 31.2808 20.876 31.2808 17.4966C31.2808 14.1171 29.9639 10.9328 27.5739 8.54276L29.0511 7.06555C31.8383 9.85273 33.3712 13.5597 33.3712 17.4966C33.3712 21.4404 31.8383 25.1404 29.0511 27.9276Z" fill="#ACACAE"/>
<path d="M11.5197 26.2622H0.628815V8.73779H11.5197V26.2622ZM2.7192 24.1718H9.42933V10.8282H2.7192V24.1718Z" fill="#ACACAE"/>
<path d="M22.2085 35L9.42932 25.7466V9.24647L22.2085 0V35ZM11.5197 24.6805L20.1182 30.9028V4.09019L11.5197 10.3126V24.6805Z" fill="#ACACAE"/>
</g>
<defs>
<clipPath id="clip0_1_23">
<rect width="32.7424" height="35" fill="white" transform="translate(0.628815)"/>
</clipPath>
</defs>
</svg>
