<svg width="275" height="39" viewBox="0 0 275 39" fill="none" xmlns="http://www.w3.org/2000/svg">
<g clip-path="url(#clip0_114_2)">
<g clip-path="url(#clip1_114_2)">
<g clip-path="url(#clip2_114_2)">
<path d="M29.9893 11.6072V13.8357H36.2107V15.1357H21.9107V13.8357H28.225V11.6072H29.9893ZM23.5821 6.77858H34.5393V8.07858H29.9893C30.0821 8.45001 30.2678 8.82144 30.6393 9.19286C31.0107 9.56429 31.3821 9.84286 31.8464 10.1214C32.3107 10.4 32.8678 10.5857 33.425 10.7714C33.9821 10.9572 34.5393 11.05 35.0036 11.1429L34.5393 12.35C33.9821 12.2572 33.5178 12.1643 32.9607 11.9786C32.4036 11.7929 31.9393 11.6072 31.3821 11.3286C30.9178 11.05 30.4536 10.7714 30.0821 10.4929C29.7107 10.2143 29.4321 9.84287 29.1536 9.47144C28.9678 9.84287 28.5964 10.1214 28.225 10.4929C27.8536 10.7714 27.3893 11.05 26.925 11.3286C26.4607 11.6072 25.9036 11.7929 25.2536 11.9786C24.6964 12.1643 24.0464 12.2572 23.3964 12.35L23.025 11.1429C23.5821 11.05 24.1393 10.9572 24.6964 10.7714C25.2536 10.5857 25.8107 10.4 26.275 10.1214C26.7393 9.84286 27.1107 9.56429 27.4821 9.19286C27.8536 8.82144 28.0393 8.45001 28.1321 8.07858H23.675V6.77858H23.5821ZM33.8893 19.0357C33.8893 19.5 33.7964 19.8714 33.5178 20.2429C33.3321 20.6143 32.9607 20.9857 32.5893 21.2643C32.2178 21.5429 31.6607 21.8214 31.1036 21.9143C30.5464 22.1 29.8036 22.1929 29.0607 22.1929C28.3178 22.1929 27.6678 22.1 27.1107 21.9143C26.5536 21.7286 25.9964 21.5429 25.625 21.2643C25.2536 20.9857 24.8821 20.6143 24.6964 20.2429C24.5107 19.8714 24.325 19.5 24.325 19.0357C24.325 18.5714 24.4178 18.2 24.6964 17.8286C24.8821 17.4572 25.2536 17.0857 25.625 16.8072C25.9964 16.5286 26.5536 16.3429 27.1107 16.1572C27.6678 15.9714 28.4107 15.8786 29.0607 15.8786C29.8036 15.8786 30.4536 15.9714 31.1036 16.1572C31.6607 16.3429 32.2178 16.5286 32.5893 16.8072C32.9607 17.0857 33.3321 17.4572 33.5178 17.8286C33.7964 18.2 33.8893 18.5714 33.8893 19.0357ZM29.1536 17.2714C28.225 17.2714 27.4821 17.4572 26.925 17.7357C26.3678 18.1072 26.0893 18.4786 26.0893 19.0357C26.0893 19.3143 26.1821 19.5 26.275 19.7786C26.4607 19.9643 26.6464 20.15 26.925 20.3357C27.2036 20.5214 27.4821 20.6143 27.8536 20.7072C28.225 20.8 28.6893 20.8929 29.1536 20.8929C29.6178 20.8929 30.0821 20.8 30.4536 20.7072C30.825 20.6143 31.1964 20.5214 31.3821 20.3357C31.6607 20.15 31.8464 19.9643 32.0321 19.7786C32.125 19.5929 32.2178 19.3143 32.2178 19.0357C32.2178 18.4786 31.9393 18.1072 31.3821 17.7357C30.825 17.4572 30.0821 17.2714 29.1536 17.2714Z" fill="#231F20"/>
<path d="M116.532 12.6286V17.55H118.296V12.6286H119.968V17.55H125.168V18.85H110.868V17.55H114.768V12.6286H116.532ZM121.361 9.28572C121.361 9.10001 121.361 9.00715 121.268 8.9143C121.175 8.82144 121.082 8.82144 120.896 8.82144H113.096V7.52144H121.918C122.382 7.52144 122.661 7.6143 122.846 7.80001C123.032 7.98572 123.125 8.35715 123.125 8.72858V15.4143H121.361V9.28572Z" fill="#231F20"/>
<path d="M137.332 21.8214H135.568V18.4786C135.568 18.2929 135.568 18.2 135.475 18.1071C135.382 18.0143 135.289 18.0143 135.104 18.0143H127.025V16.7143H129.254V14.8571H125.168V13.5571H139.468V14.8571H135.382V16.7143H135.754C136.311 16.7143 136.682 16.8071 136.961 16.9929C137.146 17.1786 137.332 17.55 137.332 18.0143V21.8214ZM127.396 9.47143C127.396 9.00714 127.489 8.54286 127.768 8.17143C128.046 7.8 128.418 7.52143 128.789 7.24286C129.254 6.96429 129.718 6.77857 130.368 6.68571C130.925 6.59286 131.575 6.5 132.225 6.5C132.875 6.5 133.525 6.59286 134.082 6.68571C134.639 6.77857 135.196 6.96429 135.661 7.24286C136.125 7.52143 136.496 7.8 136.682 8.17143C136.961 8.54286 137.054 9.00714 137.054 9.47143C137.054 9.93571 136.961 10.4 136.682 10.7714C136.404 11.1429 136.032 11.4214 135.661 11.7C135.196 11.9786 134.732 12.1643 134.082 12.2571C133.525 12.35 132.875 12.4429 132.225 12.4429C131.575 12.4429 130.925 12.35 130.368 12.2571C129.811 12.1643 129.254 11.9786 128.789 11.7C128.325 11.4214 127.954 11.1429 127.768 10.7714C127.582 10.4 127.396 9.93571 127.396 9.47143ZM129.254 9.47143C129.254 9.75 129.346 10.0286 129.532 10.2143C129.718 10.4 129.904 10.5857 130.275 10.6786C130.554 10.7714 130.925 10.8643 131.296 10.9571C131.668 11.05 132.039 11.05 132.411 11.05C132.782 11.05 133.154 11.05 133.525 10.9571C133.896 10.8643 134.268 10.7714 134.546 10.6786C134.825 10.5857 135.104 10.4 135.289 10.2143C135.475 10.0286 135.568 9.75 135.568 9.47143C135.568 9.19286 135.475 8.91429 135.289 8.72857C135.104 8.54286 134.918 8.35714 134.546 8.26429C134.268 8.17143 133.896 8.07857 133.525 7.98571C133.154 7.89286 132.782 7.89286 132.411 7.89286C132.039 7.89286 131.668 7.89286 131.296 7.98571C130.925 8.07857 130.554 8.17143 130.275 8.26429C129.996 8.35714 129.718 8.54286 129.532 8.72857C129.346 8.91429 129.254 9.19286 129.254 9.47143ZM130.925 16.7143H133.711V14.8571H130.925V16.7143Z" fill="#231F20"/>
<path d="M48.0964 16.9929H38.9964V18.2929H47.075C47.2607 18.2929 47.4464 18.2929 47.4464 18.3857C47.5393 18.4786 47.5393 18.5714 47.5393 18.7571V21.7286H49.3035V18.2929C49.3035 17.9214 49.2107 17.55 49.025 17.3643C48.8393 17.1786 48.5607 16.9929 48.0964 16.9929Z" fill="#231F20"/>
<path d="M51.4393 14.2072H37.1393V15.4143H51.4393V14.2072Z" fill="#231F20"/>
<path d="M41.5036 11.4214C41.3178 11.4214 41.225 11.4214 41.1321 11.3286C41.0393 11.2357 41.0393 11.1429 41.0393 10.9572V10.2143H49.1178V9.00715H41.0393V7.89287H49.2107V6.59286H38.9036C38.9964 6.96429 39.275 7.42858 39.275 7.98572V11.3286C39.275 11.7929 39.3678 12.0714 39.6464 12.35C39.8321 12.5357 40.1107 12.6286 40.4821 12.6286H49.3036V11.4214H41.5036Z" fill="#231F20"/>
<path d="M63.1393 7.61429V8.17143H60.075V8.07857H58.3107V8.91429H54.3179V8.63572H52.5536V12.2571C52.5536 12.5357 52.5536 12.7214 52.6464 12.9071C52.7393 13.0929 52.8322 13.2786 52.925 13.3714C53.0179 13.4643 53.2036 13.5571 53.2964 13.65C53.4822 13.7429 53.575 13.7429 53.7607 13.7429H59.9822V12.2571H63.1393V14.3H64.9036V7.61429H63.1393ZM58.3107 12.4429H54.6893C54.5036 12.4429 54.4107 12.4429 54.3179 12.35C54.225 12.2571 54.225 12.1643 54.225 11.9786V10.1214H58.2179V12.4429H58.3107ZM63.1393 10.9571H60.075V9.47143H63.1393V10.9571Z" fill="#231F20"/>
<path d="M55.0607 19.2214V20.5214C55.0607 20.9857 55.1535 21.2643 55.4321 21.45C55.6178 21.6357 55.9892 21.8214 56.3607 21.8214H64.9964V20.5214H57.2892C57.1035 20.5214 57.0107 20.5214 56.9178 20.4286C56.825 20.3357 56.825 20.2429 56.825 20.15V19.2214H64.9035V16.1571C64.9035 15.8786 64.8107 15.6929 64.7178 15.5071C64.625 15.3214 64.3464 15.2286 64.0678 15.2286H55.1535V16.5286H62.8607C63.1392 16.5286 63.2321 16.6214 63.2321 16.8071V17.8286H55.1535V19.2214H55.0607Z" fill="#231F20"/>
<path d="M54.3178 6.59286H52.275C52.3678 6.96429 52.6464 7.42858 52.6464 7.98572V8.72858H54.4107V6.59286H54.3178Z" fill="#231F20"/>
<path d="M60.075 6.59286H58.0321C58.125 6.96429 58.4035 7.42858 58.4035 7.98572V8.72858H60.1678L60.075 6.59286Z" fill="#231F20"/>
<path d="M64.8107 6.22144H62.7678C62.8607 6.59286 63.1393 7.05715 63.1393 7.61429V8.35715H64.9035L64.8107 6.22144Z" fill="#231F20"/>
<path d="M73.4464 13.65C73.075 13.0929 72.8893 12.5357 72.7036 11.8857C72.5178 11.2357 72.425 10.5857 72.425 9.84286V8.91429H75.5821V7.61429H67.4107V8.91429H70.5678V9.84286C70.5678 11.2357 70.2893 12.5357 69.6393 13.65C68.9893 14.7643 68.0607 15.6929 66.6678 16.5286L67.5964 17.7357C68.525 17.1786 69.3607 16.5286 70.0107 15.7857C70.6607 15.0429 71.2178 14.2071 71.4964 13.1857C71.5893 13.5571 71.8678 13.9286 72.0536 14.3929C72.3321 14.7643 72.6107 15.2286 72.9821 15.6C73.3536 15.9714 73.725 16.3429 74.0964 16.6214C74.4678 16.9 74.8393 17.1786 75.2107 17.4571L76.0464 16.3429C75.4893 15.9714 74.9321 15.6 74.4678 15.1357C74.1893 14.6714 73.8178 14.2071 73.4464 13.65Z" fill="#231F20"/>
<path d="M79.2964 11.7V7.98572H77.5321V21.2643H79.2964V13.0929H81.7107V11.7H79.2964Z" fill="#231F20"/>
<path d="M79.2964 6.22144H77.2535C77.3464 6.59286 77.625 7.05715 77.625 7.61429V8.35715H79.3893V6.22144H79.2964Z" fill="#231F20"/>
<path d="M147.732 12.9072C147.268 12.6286 146.896 12.2572 146.618 11.8857C146.246 11.5143 145.968 11.1429 145.782 10.6786C145.596 10.2143 145.411 9.84287 145.411 9.37858H148.661V8.07858H145.411V7.89287H143.646V8.07858H140.489V9.37858H143.646C143.646 9.93573 143.554 10.4 143.368 10.8643C143.182 11.3286 142.904 11.7 142.625 12.0714C142.346 12.4429 141.882 12.8143 141.511 13.0929C141.046 13.3714 140.582 13.65 140.025 13.9286L140.861 15.1357C141.325 14.95 141.696 14.7643 142.068 14.4857C142.439 14.3 142.811 14.0214 143.182 13.7429C143.554 13.4643 143.832 13.0929 144.111 12.8143C144.389 12.4429 144.575 12.0714 144.761 11.7C144.946 12.0714 145.132 12.35 145.411 12.6286C145.689 12.9072 145.968 13.1857 146.339 13.4643C146.711 13.7429 146.989 13.9286 147.361 14.2072C147.732 14.3929 148.104 14.5786 148.475 14.7643L149.218 13.65C148.568 13.4643 148.104 13.1857 147.732 12.9072Z" fill="#231F20"/>
<path d="M152.468 17.4572C152.282 17.0857 151.911 16.7143 151.539 16.4357C151.168 16.1572 150.611 15.9714 150.054 15.7857C149.496 15.6 148.846 15.5072 148.196 15.5072C147.546 15.5072 146.896 15.6 146.339 15.7857C145.782 15.9714 145.318 16.1572 144.854 16.4357C144.482 16.7143 144.111 17.0857 143.925 17.4572C143.739 17.8286 143.646 18.2929 143.646 18.7572C143.646 19.2214 143.739 19.6857 143.925 20.0572C144.111 20.4286 144.482 20.8 144.854 21.0786C145.225 21.3572 145.782 21.6357 146.339 21.7286C146.896 21.9143 147.546 22.0072 148.196 22.0072C148.939 22.0072 149.496 21.9143 150.054 21.7286C150.611 21.5429 151.075 21.3572 151.539 21.0786C151.911 20.8 152.282 20.4286 152.468 20.0572C152.654 19.6857 152.839 19.2214 152.839 18.7572C152.839 18.2 152.654 17.8286 152.468 17.4572ZM150.889 19.5C150.796 19.6857 150.611 19.9643 150.332 20.15C150.054 20.3357 149.775 20.4286 149.404 20.5214C149.032 20.6143 148.661 20.7072 148.196 20.7072C147.732 20.7072 147.361 20.7072 146.989 20.5214C146.618 20.4286 146.339 20.3357 146.061 20.15C145.782 19.9643 145.596 19.7786 145.504 19.5C145.411 19.3143 145.318 19.0357 145.318 18.7572C145.318 18.2 145.596 17.7357 146.061 17.3643C146.618 16.9929 147.268 16.8072 148.196 16.8072C149.125 16.8072 149.775 16.9929 150.332 17.3643C150.889 17.7357 151.075 18.2 151.075 18.7572C151.075 19.0357 150.982 19.2214 150.889 19.5Z" fill="#231F20"/>
<path d="M150.982 7.89287V10.4929H147.918V11.7929H150.982V15.2286H152.746V7.89287H150.982Z" fill="#231F20"/>
<path d="M145.318 6.5H143.182C143.275 6.87143 143.554 7.33571 143.554 7.89286V8.35714H145.411L145.318 6.5Z" fill="#231F20"/>
<path d="M152.746 6.22144H150.704C150.796 6.59286 151.075 7.05715 151.075 7.61429V8.07858H152.839L152.746 6.22144Z" fill="#231F20"/>
<path d="M102.418 13.5571C102.046 13 101.861 12.4429 101.675 11.7929C101.489 11.1429 101.396 10.4929 101.396 9.75001V9.10001H99.6321V9.84286C99.6321 11.2357 99.3535 12.5357 98.7035 13.65C98.0535 14.7643 97.125 15.7857 95.7321 16.6214L96.7535 17.8286C97.6821 17.2714 98.5178 16.6214 99.1678 15.7857C99.8178 15.0429 100.375 14.1143 100.654 13.0929C100.746 13.4643 101.025 13.9286 101.211 14.3C101.489 14.6714 101.768 15.1357 102.046 15.5071C102.418 15.8786 102.696 16.25 103.068 16.6214C103.439 16.9929 103.811 17.2714 104.182 17.4571L105.018 16.3429C104.461 15.9714 103.904 15.6 103.532 15.1357C103.161 14.6714 102.789 14.1143 102.418 13.5571Z" fill="#231F20"/>
<path d="M108.639 7.8H106.875V21.1714H108.639V7.8Z" fill="#231F20"/>
<path d="M101.396 7.42857H99.2607C99.3535 7.8 99.6321 8.26429 99.6321 8.82143V9.37857H101.396V7.42857Z" fill="#231F20"/>
<path d="M108.639 6.22144H106.596C106.689 6.59286 106.875 7.05715 106.875 7.61429V8.17144H108.639V6.22144Z" fill="#231F20"/>
<path d="M88.3035 14.0214C87.9321 13.4643 87.7464 12.8143 87.5607 12.1643C87.2821 11.6071 87.2821 10.4929 87.2821 9.84286H90.625V8.45H87.2821V8.17143H85.425V8.54286H82.175V9.84286H85.425C85.425 11.3286 85.1464 13 84.4964 14.1143C83.8464 15.2286 82.9178 16.25 81.525 16.9929C81.7107 17.1786 81.8964 17.4571 82.0821 17.6429C82.2678 17.8286 82.4535 18.1071 82.6392 18.2929C83.5678 17.7357 84.4035 17.0857 85.0535 16.3429C85.7035 15.6 86.2607 14.7643 86.5392 13.7429C86.6321 14.1143 86.8178 14.5786 87.0964 14.95C87.375 15.3214 87.6535 15.7857 87.9321 16.1571C88.3035 16.5286 88.5821 16.9 88.9535 17.1786C89.325 17.55 89.6964 17.8286 90.0678 18.0143C90.2535 17.8286 90.3464 17.6429 90.5321 17.4571C90.7178 17.2714 90.8107 17.0857 90.9964 16.9C90.4392 16.5286 89.975 16.1571 89.5107 15.6929C89.0464 15.1357 88.5821 14.5786 88.3035 14.0214Z" fill="#231F20"/>
<path d="M94.3392 7.89287H92.575V21.2643H94.3392V7.89287Z" fill="#231F20"/>
<path d="M87.2821 6.59286H85.1464C85.2393 7.05715 85.425 7.52144 85.425 8.07858V8.54286H87.2821V6.59286Z" fill="#231F20"/>
<path d="M94.3392 6.22144H92.2964C92.3892 6.59286 92.575 7.05715 92.575 7.61429V8.17144H94.3392V6.22144Z" fill="#231F20"/>
<path d="M12.3464 13.4643C11.8821 12.35 11.6964 11.05 11.6964 9.75001V9.47144H9.93213V9.75001C9.93213 10.4 9.83927 11.05 9.74641 11.7C9.65356 12.35 9.46784 12.9072 9.18927 13.4643C8.9107 14.0214 8.63213 14.5786 8.16784 15.0429C7.79641 15.5072 7.23927 15.9714 6.68213 16.4357L7.70356 17.55C8.07499 17.2714 8.44641 16.9929 8.81784 16.7143C9.18927 16.4357 9.46784 16.0643 9.74641 15.6929C10.025 15.3214 10.2107 14.95 10.4893 14.6714C10.675 14.3 10.8607 13.9286 10.9536 13.5572C11.0464 13.9286 11.2321 14.3 11.4178 14.6714C11.6036 15.0429 11.8821 15.4143 12.0678 15.6929C12.3464 16.0643 12.625 16.3429 12.9036 16.6214C13.1821 16.9 13.4607 17.1786 13.7393 17.3643L14.6678 16.3429C13.5536 15.4143 12.8107 14.5786 12.3464 13.4643Z" fill="#231F20"/>
<path d="M15.5035 11.2357H13.275V12.5357H15.5035V20.8929H17.175V8.2643H15.5035V11.2357Z" fill="#231F20"/>
<path d="M20.3321 8.2643H18.6607V21.2643H20.3321V8.2643Z" fill="#231F20"/>
<path d="M20.3321 6.22144H18.2892C18.3821 6.59286 18.6607 7.05715 18.6607 7.61429V8.35715H20.3321V6.22144Z" fill="#231F20"/>
<path d="M17.175 6.5H15.1321C15.225 6.87143 15.5036 7.33571 15.5036 7.89286V8.63571H17.175V6.5Z" fill="#231F20"/>
<path d="M11.6035 7.52144H9.46783C9.56069 7.89287 9.83926 8.45001 9.83926 9.00715V9.75001H11.6035V7.52144Z" fill="#231F20"/>
<path d="M8.35354 31.2929C8.35354 31.2929 9.0964 32.0357 10.025 32.0357C10.4893 32.0357 10.8607 31.6643 10.8607 31.2929C10.8607 30.2715 8.26068 30.1786 8.26068 28.4143C8.26068 27.3929 9.00354 26.65 10.1178 26.65C10.8607 26.65 11.5107 26.9286 11.7893 27.1143L11.6035 28.0429C11.6035 28.0429 11.0464 27.5786 10.1178 27.5786C9.7464 27.5786 9.37497 27.8572 9.37497 28.2286C9.37497 29.25 11.975 29.25 11.975 31.1072C11.975 32.1286 11.2321 32.9643 10.1178 32.9643C8.91068 32.9643 8.26068 32.3143 8.26068 32.3143L8.35354 31.2929Z" fill="#231F20"/>
<path d="M13.1821 27.6714L13.0892 26.7429H16.5249V27.6714H14.3892V29.25H16.2464L16.0607 30.1786H14.3892V31.9429H16.6178L16.4321 32.8714H13.1821V27.6714Z" fill="#231F20"/>
<path d="M19.125 32.3143C19.125 33.5214 18.5678 34.5429 17.175 34.5429C16.9892 34.5429 16.8035 34.5429 16.525 34.45L16.6178 33.4286C16.6178 33.4286 16.8964 33.5214 17.2678 33.5214C17.7321 33.5214 18.0107 32.9643 18.0107 32.2214V27.4857L17.9178 26.5572H19.2178L19.125 32.3143Z" fill="#231F20"/>
<path d="M25.9035 29.7143C25.9035 31.5715 24.6035 32.8715 23.025 32.8715C21.2607 32.8715 20.2393 31.4786 20.2393 29.8072C20.2393 28.0429 21.4464 26.65 23.1178 26.65C24.975 26.65 25.9035 27.8572 25.9035 29.7143ZM23.025 32.0357C23.9535 32.0357 24.6035 31.1072 24.6035 29.8072C24.6035 28.5072 23.9535 27.5786 23.025 27.5786C22.0964 27.5786 21.4464 28.5072 21.4464 29.8072C21.4464 31.1072 22.0964 32.0357 23.025 32.0357Z" fill="#231F20"/>
<path d="M32.0321 32.0357L32.1249 32.7786H31.3821L28.3178 29.3429L28.0392 28.7857V32.0357L28.1321 32.7786H26.9249V27.6714L26.8321 26.7429H27.7607L30.7321 30.2714L31.1035 30.8286V27.6714L31.0107 26.7429H32.2178V32.0357H32.0321Z" fill="#231F20"/>
<path d="M37.6964 28.2286C37.2321 27.6715 36.675 27.4857 36.1179 27.4857C35.0964 27.4857 34.3536 28.5072 34.3536 29.8072C34.3536 31.2 35.2821 32.0357 36.2107 32.0357C36.675 32.0357 37.1393 31.9429 37.1393 31.9429V30.6429L36.9536 29.9H38.2536V32.5929C38.2536 32.5929 37.2321 32.9643 36.025 32.9643C34.5393 32.9643 33.1464 31.9429 33.1464 29.9C33.1464 27.95 34.4464 26.65 36.1179 26.65C36.9536 26.65 37.6036 26.9286 38.1607 27.3929L37.6964 28.2286Z" fill="#231F20"/>
<path d="M45.8678 28.2286C45.4035 27.6715 44.8464 27.4857 44.2892 27.4857C43.2678 27.4857 42.525 28.5072 42.525 29.8072C42.525 31.2 43.4535 32.0357 44.3821 32.0357C45.0321 32.0357 45.6821 31.7572 46.2392 31.2L46.425 32.1286C45.8678 32.6857 44.9392 32.9643 44.1964 32.9643C42.7107 32.9643 41.3178 31.9429 41.3178 29.9C41.3178 27.95 42.6178 26.65 44.2892 26.65C45.125 26.65 45.775 26.9286 46.3321 27.3929L45.8678 28.2286Z" fill="#231F20"/>
<path d="M48.6535 32.0357L48.7464 32.7786H47.4464V27.6714L47.3535 26.7429H48.6535V32.0357Z" fill="#231F20"/>
<path d="M49.5821 26.7429H54.5964V27.6714H52.6464V32.0357L52.7392 32.7786H51.4392V27.5786H49.5821V26.7429Z" fill="#231F20"/>
<path d="M57.6607 32.0357L57.7535 32.7786H56.4535V30.1786L55.0607 27.4857L54.5035 26.7429H55.8964L56.9178 28.7857L57.0107 29.1572L57.1035 28.7857L58.125 26.7429H59.3321L57.475 30.0857V32.0357H57.6607Z" fill="#231F20"/>
<path d="M67.6892 29.7143C67.6892 31.5715 66.3892 32.8715 64.8107 32.8715C63.0464 32.8715 62.025 31.4786 62.025 29.8072C62.025 28.0429 63.2321 26.65 64.9035 26.65C66.7607 26.65 67.6892 27.8572 67.6892 29.7143ZM64.9035 32.0357C65.8321 32.0357 66.4821 31.1072 66.4821 29.8072C66.4821 28.5072 65.8321 27.5786 64.9035 27.5786C63.975 27.5786 63.325 28.5072 63.325 29.8072C63.325 31.1072 63.975 32.0357 64.9035 32.0357Z" fill="#231F20"/>
<path d="M68.7107 26.7429H72.1464V27.6714H70.0107V29.25H71.8678L71.6821 30.1786H70.0107V32.0357L70.1036 32.7786H68.8035V27.6714L68.7107 26.7429Z" fill="#231F20"/>
<path d="M73.075 26.7429H76.5107V27.6714H74.375V29.25H76.325L76.1392 30.1786H74.4678V32.0357L74.5607 32.7786H73.2607V27.6714L73.075 26.7429Z" fill="#231F20"/>
<path d="M78.8321 32.0357L78.925 32.7786H77.625V27.6714L77.5321 26.7429H78.8321V32.0357Z" fill="#231F20"/>
<path d="M84.5892 28.2286C84.125 27.6715 83.5678 27.4857 83.0107 27.4857C81.9892 27.4857 81.2464 28.5072 81.2464 29.8072C81.2464 31.2 82.175 32.0357 83.1035 32.0357C83.7535 32.0357 84.4035 31.7572 84.9607 31.2L85.1464 32.1286C84.5892 32.6857 83.6607 32.9643 82.9178 32.9643C81.4321 32.9643 80.0392 31.9429 80.0392 29.9C80.0392 27.95 81.3392 26.65 83.0107 26.65C83.8464 26.65 84.4964 26.9286 85.0535 27.3929L84.5892 28.2286Z" fill="#231F20"/>
<path d="M86.1678 27.6714L86.075 26.7429H89.5107V27.6714H87.2821V29.25H89.1392L88.9535 30.1786H87.2821V31.9429H89.5107L89.325 32.8714H86.075L86.1678 27.6714Z" fill="#231F20"/>
<path d="M98.0536 29.7143C98.0536 31.5715 96.7536 32.8715 95.175 32.8715C93.4107 32.8715 92.3893 31.4786 92.3893 29.8072C92.3893 28.0429 93.5964 26.65 95.2679 26.65C97.125 26.65 98.0536 27.8572 98.0536 29.7143ZM95.2679 32.0357C96.1964 32.0357 96.8464 31.1072 96.8464 29.8072C96.8464 28.5072 96.1964 27.5786 95.2679 27.5786C94.3393 27.5786 93.6893 28.5072 93.6893 29.8072C93.6893 31.1072 94.3393 32.0357 95.2679 32.0357Z" fill="#231F20"/>
<path d="M99.075 26.7429H102.511V27.6714H100.375V29.25H102.325L102.139 30.1786H100.468V32.0357L100.561 32.7786H99.2607V27.6714L99.075 26.7429Z" fill="#231F20"/>
<path d="M105.854 27.6714L105.761 26.7429H109.196V27.6714H107.061V29.25H108.918L108.732 30.1786H107.061V31.9429H109.289L109.104 32.8714H105.854V27.6714Z" fill="#231F20"/>
<path d="M112.725 26.7429C114.025 26.7429 115.418 27.6714 115.418 29.7143C115.418 31.4786 114.304 32.7786 112.446 32.7786H110.404V27.6714L110.311 26.7429H112.725ZM111.611 31.9429H112.539C113.468 31.9429 114.118 31.0143 114.118 29.8072C114.118 28.6 113.468 27.6714 112.539 27.6714H111.611V31.9429Z" fill="#231F20"/>
<path d="M120.525 27.6714L120.432 26.7429H121.639V30.3643C121.639 31.85 120.618 32.9643 119.039 32.9643C116.718 32.9643 116.718 30.8286 116.718 30.6429V27.6714L116.625 26.7429H117.925V30.55C117.925 31.4786 118.482 32.0357 119.318 32.0357C120.061 32.0357 120.711 31.3857 120.711 30.4572V27.6714H120.525Z" fill="#231F20"/>
<path d="M127.025 28.2286C126.561 27.6715 126.004 27.4857 125.446 27.4857C124.425 27.4857 123.682 28.5072 123.682 29.8072C123.682 31.2 124.611 32.0357 125.539 32.0357C126.189 32.0357 126.839 31.7572 127.396 31.2L127.582 32.1286C127.025 32.6857 126.096 32.9643 125.354 32.9643C123.868 32.9643 122.475 31.9429 122.475 29.9C122.475 27.95 123.775 26.65 125.446 26.65C126.282 26.65 126.932 26.9286 127.489 27.3929L127.025 28.2286Z" fill="#231F20"/>
<path d="M130.182 26.7429L130.925 26.5572L132.782 31.6643L133.246 32.7786H131.946L131.389 31.3857H129.439L128.882 32.7786H127.768L130.182 26.7429ZM129.718 30.4572H131.204L130.554 28.6929L130.461 28.3214L130.368 28.6929L129.718 30.4572Z" fill="#231F20"/>
<path d="M132.875 26.7429H137.889V27.6714H135.939V32.0357L136.032 32.7786H134.732V27.5786H132.875V26.7429Z" fill="#231F20"/>
<path d="M139.932 32.0357L140.025 32.7786H138.725V27.6714L138.632 26.7429H139.932V32.0357Z" fill="#231F20"/>
<path d="M146.804 29.7143C146.804 31.5715 145.504 32.8715 143.925 32.8715C142.161 32.8715 141.139 31.4786 141.139 29.8072C141.139 28.0429 142.346 26.65 144.018 26.65C145.875 26.65 146.804 27.8572 146.804 29.7143ZM143.925 32.0357C144.854 32.0357 145.504 31.1072 145.504 29.8072C145.504 28.5072 144.854 27.5786 143.925 27.5786C142.996 27.5786 142.346 28.5072 142.346 29.8072C142.346 31.1072 142.996 32.0357 143.925 32.0357Z" fill="#231F20"/>
<path d="M152.746 32.0357L152.839 32.7786H152.096L149.032 29.3429L148.661 28.7857V32.0357L148.754 32.7786H147.639V27.6714L147.546 26.7429H148.475L151.446 30.2714L151.818 30.8286V27.6714L151.725 26.7429H152.932V32.0357H152.746Z" fill="#231F20"/>
<path d="M167.511 6.22144H166.675V32.8714H167.511V6.22144Z" fill="#231F20"/>
<path d="M194.532 12.5357H182.739V15.0429H194.718V17.0857H188.868V18.6643H195.554V20.7071H179.118V18.6643H186.175V17.0857H182.461C181.718 17.0857 181.068 16.9 180.696 16.5286C180.325 16.1571 180.139 15.6929 180.139 14.95V10.4929H194.718V12.5357H194.532ZM194.532 22.1V28.4143H191.746V24.2357H179.954V22.1H194.532Z" fill="#231F20"/>
<path d="M205.396 25.0714V20.3357H208.182V25.0714H214.868V27.1143H198.432V25.0714H205.396ZM213.939 12.5357H202.146V17.9214H214.125V19.9643H201.682C200.939 19.9643 200.289 19.7786 199.918 19.4071C199.546 19.0357 199.361 18.5714 199.361 17.8286V10.5857H213.939V12.5357Z" fill="#231F20"/>
<path d="M223.689 15.5072C223.689 18.2929 224.618 21.1714 227.218 22.5643L225.825 24.5143C224.154 23.6786 223.132 22.1929 222.482 20.4286C221.832 22.3786 220.811 24.05 219.139 24.9786L217.654 22.9357C220.254 21.3572 221.275 18.2929 221.275 15.5072V15.1357H218.396V13H221.275V10.4929H223.782V13H226.661V15.1357H223.782V15.5072H223.689ZM227.589 10.1214H230.096V27.5786H227.589V19.0357H225.454V16.9H227.589V10.1214ZM233.811 9.84286V28.4143H231.304V9.84286H233.811Z" fill="#231F20"/>
<path d="M247.368 13.5571H236.504V11.5143H240.589V9.75H243.282V11.5143H247.368V13.5571ZM241.982 20.8929C239.382 20.8929 237.525 19.5 237.525 17.55C237.525 15.6 239.382 14.2071 241.982 14.2071C244.582 14.2071 246.439 15.6 246.439 17.55C246.439 19.5 244.582 20.8929 241.982 20.8929ZM239.661 21.8214H252.011V28.1357H239.661V21.8214ZM241.982 18.9429C243.096 18.9429 243.932 18.4786 243.932 17.55C243.932 16.6214 243.189 16.1571 241.982 16.1571C240.775 16.1571 240.032 16.6214 240.032 17.55C240.032 18.4786 240.868 18.9429 241.982 18.9429ZM242.261 26.0929H249.411V23.9571H242.261V26.0929ZM252.011 9.84286V21.0786H249.318V17.4571H246.996V15.3214H249.318V9.93571H252.011V9.84286Z" fill="#231F20"/>
<path d="M266.311 20.4286C262.504 21.1714 258.139 21.1714 254.982 21.2643L254.704 19.1286C255.725 19.1286 256.839 19.1286 258.046 19.1286V15.5072H260.646V19.0357C262.504 18.9429 264.361 18.85 266.032 18.5714L266.311 20.4286ZM262.318 17.55C262.596 15.7857 262.689 14.4857 262.689 13.3714H255.818V11.2357H265.382V12.35C265.382 13.65 265.382 15.5072 264.918 17.8286L262.318 17.55ZM260.089 26H270.396V28.1357H257.396V22.5643H260.089V26ZM272.068 15.5072V17.7357H269.839V23.7714H267.146V9.84286H269.839V15.5072H272.068Z" fill="#231F20"/>
</g>
</g>
</g>
<defs>
<clipPath id="clip0_114_2">
<rect width="274.2" height="39" fill="white"/>
</clipPath>
<clipPath id="clip1_114_2">
<rect width="274.2" height="39" fill="white"/>
</clipPath>
<clipPath id="clip2_114_2">
<rect width="274.207" height="39" fill="white" transform="translate(-0.00360107)"/>
</clipPath>
</defs>
</svg>
